<svg xmlns="http://www.w3.org/2000/svg" version="1.1" xmlns:xlink="http://www.w3.org/1999/xlink" width="544.000000pt" height="632.000000pt"><svg xmlns="http://www.w3.org/2000/svg" version="1.1" xmlns:xlink="http://www.w3.org/1999/xlink" width="544.000000pt" height="632.000000pt"><svg version="1.0" xmlns="http://www.w3.org/2000/svg" width="544.000000pt" height="632.000000pt" viewBox="0 0 544.000000 632.000000" preserveAspectRatio="xMidYMid meet">

<g transform="translate(0.000000,632.000000) scale(0.100000,-0.100000)" fill="#000000" stroke="none">
<path d="M0 3160 l0 -3160 2720 0 2720 0 0 3160 0 3160 -2720 0 -2720 0 0
-3160z m2827 2936 c45 -23 92 -75 103 -116 26 -92 2 -171 -70 -233 l-41 -34
27 -74 c71 -197 206 -418 337 -552 175 -178 337 -209 607 -115 148 52 346 169
413 246 17 19 17 22 3 51 -59 113 -7 243 112 277 145 43 272 -42 272 -181 0
-100 -62 -176 -163 -197 l-55 -12 -20 -65 c-12 -36 -49 -165 -83 -286 -76
-275 -168 -576 -181 -592 -6 -7 -14 -10 -20 -7 -9 6 -6 -9 14 -90 5 -21 8 -39
6 -41 -2 -2 -32 19 -68 46 -82 61 -287 167 -405 209 -133 46 -332 96 -485 122
-112 18 -174 22 -365 22 -207 0 -245 -3 -380 -28 -428 -77 -772 -227 -1015
-440 -41 -36 -76 -62 -78 -57 -6 17 82 155 136 212 130 141 421 286 731 364
501 125 1027 90 1569 -106 91 -32 172 -59 179 -59 33 0 272 594 249 618 -3 3
-16 -4 -29 -15 -91 -82 -351 -247 -503 -319 l-119 -56 -115 26 c-262 58 -482
81 -709 73 -199 -7 -343 -28 -558 -83 -311 -79 -556 -192 -740 -341 l-41 -34
-51 158 c-27 87 -73 235 -100 328 -142 478 -133 454 -163 448 -40 -8 -120 23
-155 60 -44 46 -53 69 -53 128 0 160 163 253 312 177 82 -41 122 -162 82 -250
l-18 -41 34 -29 c123 -103 354 -226 496 -263 150 -39 262 -29 378 33 74 39
230 200 308 317 70 105 168 299 187 372 l12 42 -50 48 c-119 116 -81 291 76
349 47 18 147 13 190 -10z m-886 -559 c43 -29 59 -60 59 -118 0 -34 -7 -57
-26 -85 l-27 -39 66 -60 c36 -34 83 -69 106 -79 l40 -19 -38 -27 c-54 -39 -98
-61 -156 -76 -74 -20 -76 -19 -59 21 20 48 17 100 -9 165 -20 50 -25 55 -56
58 -97 8 -161 116 -117 200 16 30 53 66 76 75 39 14 108 6 141 -16z m1739 -12
c35 -34 53 -88 44 -134 -10 -47 -61 -97 -114 -111 -25 -7 -50 -14 -57 -16 -16
-4 -43 -98 -43 -148 0 -23 7 -53 14 -68 14 -27 14 -28 -12 -28 -42 1 -121 32
-179 70 -29 19 -53 37 -53 40 0 3 15 14 33 24 49 29 114 83 137 116 l22 30
-21 34 c-25 40 -28 114 -6 157 26 50 70 71 142 67 53 -3 67 -8 93 -33z m276
-853 c-14 -34 -39 -87 -56 -117 -29 -50 -34 -54 -58 -49 -40 10 -136 45 -145
54 -5 4 25 26 65 48 40 22 105 61 143 85 39 24 71 44 72 42 2 -1 -8 -29 -21
-63z m-2846 -207 c24 -80 42 -146 39 -148 -2 -2 -98 -36 -214 -75 -322 -110
-308 -103 -319 -148 -14 -58 18 -882 44 -1148 6 -54 10 -124 10 -155 l0 -57
-80 -23 c-43 -13 -109 -38 -144 -56 l-65 -33 -5 42 c-3 22 -10 115 -16 206 -6
91 -20 309 -32 485 -14 219 -21 429 -22 665 l-1 345 155 52 c85 28 243 79 350
113 107 34 204 65 215 70 11 5 25 9 31 9 6 1 31 -64 54 -144z m3649 15 l369
-121 7 -95 c9 -109 0 -407 -21 -769 -32 -556 -78 -1149 -100 -1305 -52 -366
-184 -592 -514 -883 -390 -343 -1030 -745 -1677 -1052 l-122 -58 -88 38 c-48
21 -178 82 -288 137 -462 231 -917 503 -1230 738 -133 100 -359 289 -353 295
2 2 62 -7 133 -21 72 -13 146 -26 167 -29 35 -5 36 -8 43 -54 3 -26 20 -71 36
-99 80 -140 404 -264 726 -277 l121 -5 176 -85 c161 -77 389 -178 509 -226
l49 -19 181 86 c931 441 1497 841 1716 1212 76 128 116 291 141 572 53 617 98
1444 85 1591 l-7 76 -61 21 c-204 69 -471 163 -475 167 -2 2 14 62 37 134 22
71 41 137 41 146 0 11 5 15 15 12 8 -4 180 -60 384 -127z m-1671 -139 c219
-39 400 -99 572 -187 463 -239 730 -709 707 -1244 -7 -155 -26 -265 -69 -398
-32 -103 -48 -118 -25 -26 48 194 53 441 13 634 -37 177 -112 357 -211 506
-177 266 -520 497 -850 572 -164 38 -362 55 -556 49 -96 -4 -186 -10 -199 -15
l-24 -9 25 -15 c13 -8 40 -25 59 -36 51 -32 11 -28 -53 4 -28 15 -56 33 -62
41 -29 39 -433 -81 -588 -175 -244 -149 -479 -422 -593 -692 -68 -161 -114
-362 -114 -497 0 -38 -4 -53 -14 -53 -29 0 -36 258 -11 406 32 180 124 402
222 536 66 90 198 223 287 290 92 69 314 181 462 232 117 40 294 81 409 95
132 16 482 6 613 -18z m-39 -227 c160 -33 290 -102 382 -202 41 -45 49 -60 44
-80 -3 -14 -44 -103 -89 -197 l-83 -172 -88 -2 c-71 -2 -354 -41 -477 -67 -23
-4 -43 9 -145 99 -65 57 -144 129 -176 158 l-58 54 59 105 c88 158 184 299
207 307 72 23 303 21 424 -3z m-838 -9 c-18 -8 -37 -15 -42 -15 -5 0 -55 -21
-110 -46 -116 -51 -248 -135 -326 -206 -29 -26 -56 -48 -59 -48 -14 0 86 108
141 152 91 74 236 141 370 171 45 10 59 6 26 -8z m-1056 -234 c-20 -33 -41
-64 -48 -68 -6 -4 -1 9 11 28 13 18 33 51 45 71 12 20 23 35 25 33 2 -2 -12
-31 -33 -64z m2569 -58 c181 -117 326 -324 387 -553 32 -118 32 -290 1 -370
-12 -30 -31 -69 -41 -87 l-20 -32 -98 39 c-54 21 -132 53 -174 70 l-76 32 -51
102 c-28 56 -93 164 -144 240 -51 76 -99 147 -107 159 -12 20 -7 36 57 177
122 269 132 285 170 275 14 -3 57 -27 96 -52z m-2094 -135 c0 -7 11 -37 25
-66 l24 -53 -49 -92 c-51 -97 -119 -282 -140 -381 l-12 -58 -36 9 c-21 4 -64
8 -98 8 l-61 0 14 60 c26 113 45 169 85 249 52 104 136 234 189 291 42 46 59
55 59 33z m737 -102 c43 -35 118 -101 168 -148 l90 -85 -19 -59 c-10 -32 -44
-142 -76 -244 -33 -102 -63 -201 -67 -220 l-9 -35 -229 -77 c-127 -43 -242
-77 -256 -78 -48 0 -300 215 -371 318 l-30 43 17 77 c31 138 122 372 169 435
17 22 432 132 513 136 12 1 54 -26 100 -63z m2182 -232 c49 -198 66 -356 65
-619 0 -366 -31 -544 -126 -728 -106 -204 -379 -433 -723 -607 -263 -133 -387
-166 -655 -177 -137 -6 -249 1 -236 14 3 4 43 8 88 10 288 13 532 70 730 172
222 114 459 297 578 446 183 231 265 470 292 853 14 194 0 528 -27 637 -8 33
-15 66 -15 74 0 29 10 2 29 -75z m-1334 -9 c-63 -10 -296 -60 -431 -92 -16 -4
-29 -30 -61 -121 -80 -229 -128 -341 -142 -333 -14 9 -10 25 80 321 28 91 52
170 54 177 2 6 19 11 37 11 18 0 76 8 128 17 106 18 253 32 350 32 l65 1 -80
-13z m-1933 -450 c-6 -91 -18 -84 -21 13 -1 38 15 90 24 80 2 -1 0 -43 -3 -93z
m2500 -113 c57 -22 130 -49 163 -61 97 -36 98 -37 97 -140 -3 -257 -155 -507
-376 -616 -100 -50 -207 -58 -341 -26 -49 12 -93 27 -97 34 -4 7 -8 35 -8 62
0 28 -6 91 -14 140 -8 50 -17 113 -20 141 l-6 50 62 56 c35 31 144 133 243
227 99 94 183 171 187 171 4 0 54 -17 110 -38z m-1165 -139 c54 -36 170 -109
258 -162 88 -53 170 -103 181 -111 19 -13 26 -42 51 -205 34 -219 39 -202 -66
-263 -87 -52 -183 -92 -221 -92 l-30 0 0 73 c0 136 -40 212 -149 281 -119 76
-230 109 -420 127 -64 6 -135 13 -158 15 l-42 5 -16 72 c-9 40 -19 93 -22 118
l-5 46 83 22 c46 12 163 49 259 81 96 32 181 59 187 59 7 1 56 -29 110 -66z
m-1329 26 c209 -22 390 -83 446 -150 79 -93 -24 -196 -254 -253 -146 -36 -230
-45 -422 -46 -318 0 -563 57 -641 149 -35 43 -40 64 -23 105 59 142 499 238
894 195z m-874 -384 c108 -82 324 -133 608 -142 l177 -6 -49 -44 c-27 -24 -52
-53 -55 -63 -6 -19 -16 -20 -166 -20 -97 0 -159 -4 -159 -10 0 -5 10 -12 23
-14 72 -15 162 -26 215 -26 l62 0 0 -60 0 -60 -57 0 c-59 0 -220 16 -259 26
-20 5 -21 10 -16 80 4 71 -5 104 -29 104 -5 0 -9 -38 -9 -85 l0 -85 -27 6
c-118 27 -205 70 -265 128 l-38 37 0 129 c0 72 3 130 6 130 3 0 20 -11 38 -25z
m1341 15 c-3 -5 -12 -10 -18 -10 -7 0 -6 4 3 10 19 12 23 12 15 0z m2385 -24
c-18 -49 -84 -173 -125 -236 -124 -192 -257 -303 -514 -426 -102 -48 -131 -53
-54 -9 26 16 102 80 169 144 66 64 156 143 200 177 91 69 236 226 290 315 40
63 49 73 34 35z m-1952 -96 c195 -25 372 -88 431 -156 99 -112 -49 -225 -384
-291 -131 -26 -560 -26 -690 0 -104 21 -201 49 -243 71 -76 39 -129 108 -118
152 23 89 208 184 426 217 113 18 459 22 578 7z m-1777 -280 c48 -43 154 -96
239 -119 97 -26 270 -51 354 -51 l66 0 0 -115 0 -115 -57 0 c-58 0 -220 16
-258 26 -18 4 -20 13 -20 87 0 66 -3 82 -15 82 -12 0 -15 -15 -15 -78 0 -42
-3 -77 -7 -77 -30 0 -173 56 -216 85 -82 56 -99 91 -104 208 -2 53 -3 97 -2
97 2 0 17 -13 35 -30z m791 -99 c8 -21 122 -82 199 -105 156 -47 302 -66 518
-66 218 -1 362 18 506 65 92 30 179 70 196 91 26 31 32 13 27 -81 -6 -113 -15
-130 -97 -179 -45 -27 -186 -86 -206 -86 -1 0 0 43 3 95 l5 95 -31 -11 -31
-11 -3 -91 -3 -91 -60 -14 c-71 -16 -459 -28 -570 -17 l-75 7 0 83 c0 51 -4
87 -11 91 -19 12 -29 -18 -29 -92 l0 -72 -42 9 c-124 27 -224 75 -283 136
l-35 36 0 109 c0 59 4 108 9 108 5 0 11 -4 13 -9z m26 -346 c106 -100 317
-165 587 -179 286 -16 607 49 769 155 32 22 59 39 60 39 2 0 1 -54 -2 -137 -2
-45 -7 -59 -37 -91 -19 -22 -61 -53 -94 -71 -61 -32 -95 -41 -73 -19 15 15 17
168 1 168 -6 0 -19 -5 -30 -10 -17 -9 -19 -22 -19 -99 0 -85 -1 -88 -26 -99
l-25 -12 3 95 c2 52 1 95 -2 95 -3 0 -15 -3 -27 -6 -21 -6 -22 -13 -25 -103
l-3 -96 -85 -19 c-105 -23 -433 -27 -547 -7 l-72 13 -3 86 c-2 69 -6 87 -18
87 -12 0 -16 -17 -18 -83 -3 -96 11 -93 -140 -35 -99 37 -182 94 -207 143 -10
20 -15 59 -15 125 0 52 3 95 6 95 3 0 22 -16 42 -35z"></path>
<path d="M1014 2571 c-35 -21 -50 -57 -27 -65 24 -10 33 -7 33 10 0 16 65 48
80 39 5 -3 11 -1 15 4 7 12 -26 31 -52 31 -10 0 -32 -9 -49 -19z"></path>
<path d="M805 2506 c-50 -16 -85 -37 -85 -52 0 -18 85 -36 195 -41 77 -4 97
-3 89 7 -6 6 -45 16 -85 21 -105 12 -126 18 -108 29 7 5 39 15 69 21 30 6 62
15 70 20 24 13 -99 9 -145 -5z"></path>
<path d="M1150 2471 c-13 -9 -13 -11 0 -15 12 -5 177 -26 203 -26 4 0 7 -4 7
-9 0 -11 -146 -35 -161 -26 -6 4 -22 -3 -35 -16 -19 -18 -39 -24 -89 -27 -36
-2 -65 -8 -65 -12 0 -27 138 -28 189 -1 20 11 71 27 115 35 80 15 131 39 121
56 -17 28 -254 61 -285 41z"></path>
<path d="M1813 2064 c-20 -20 -36 -27 -58 -26 -68 6 -245 -50 -245 -77 0 -19
74 -32 206 -38 86 -4 133 -2 138 5 6 10 -24 16 -161 28 -40 3 -73 10 -73 14 0
13 89 40 152 47 32 3 63 12 69 20 6 7 29 16 51 19 50 8 44 28 -10 32 -35 3
-47 -2 -69 -24z"></path>
<path d="M1976 1961 c-3 -4 40 -13 95 -20 128 -14 149 -25 89 -42 -25 -7 -72
-13 -105 -15 -33 -1 -77 -9 -97 -18 -21 -9 -50 -16 -65 -16 -27 -1 -27 -1 -8
-16 35 -26 60 -26 115 0 30 14 69 26 87 26 84 0 232 47 218 70 -17 28 -314 56
-329 31z"></path>
<path d="M2412 1644 c-19 -13 -22 -24 -22 -78 0 -67 15 -94 45 -82 12 4 15 24
15 91 0 47 -3 85 -8 85 -4 0 -18 -7 -30 -16z"></path>
</g>
</svg></svg><style>@media (prefers-color-scheme: light) { :root { filter: none; } }
@media (prefers-color-scheme: dark) { :root { filter: none; } }
</style></svg>